<?xml version="1.0" encoding="UTF-8"?>
<svg width="302px" height="244px" viewBox="0 0 302 244" version="1.1" xmlns="http://www.w3.org/2000/svg" xmlns:xlink="http://www.w3.org/1999/xlink">
    <title>692FF0AB-3B00-470A-87DE-F0FA908ABE98@3x</title>
    <defs>
        <linearGradient x1="50%" y1="0%" x2="50%" y2="100%" id="linearGradient-1">
            <stop stop-color="#7093FF" offset="0%"></stop>
            <stop stop-color="#3D5AFE" offset="100%"></stop>
        </linearGradient>
        <linearGradient x1="50%" y1="0%" x2="50%" y2="100%" id="linearGradient-2">
            <stop stop-color="#D4E2EE" offset="0%"></stop>
            <stop stop-color="#A9C1D9" offset="100%"></stop>
        </linearGradient>
        <linearGradient x1="50%" y1="0%" x2="50%" y2="100%" id="linearGradient-3">
            <stop stop-color="#315CE0" offset="0%"></stop>
            <stop stop-color="#2D49E8" offset="100%"></stop>
        </linearGradient>
        <linearGradient x1="50%" y1="0%" x2="50%" y2="100%" id="linearGradient-4">
            <stop stop-color="#7093FF" offset="0%"></stop>
            <stop stop-color="#3D5AFE" offset="100%"></stop>
        </linearGradient>
        <linearGradient x1="50%" y1="0%" x2="50%" y2="100%" id="linearGradient-5">
            <stop stop-color="#94ADD6" offset="0%"></stop>
            <stop stop-color="#5E7193" offset="100%"></stop>
        </linearGradient>
        <linearGradient x1="50%" y1="0%" x2="50%" y2="100%" id="linearGradient-6">
            <stop stop-color="#3A485F" offset="0%"></stop>
            <stop stop-color="#1B2331" offset="100%"></stop>
        </linearGradient>
        <linearGradient x1="50%" y1="0%" x2="50%" y2="100%" id="linearGradient-7">
            <stop stop-color="#F2F6FF" offset="0%"></stop>
            <stop stop-color="#E0E9FF" offset="100%"></stop>
        </linearGradient>
        <linearGradient x1="50%" y1="0%" x2="50%" y2="100%" id="linearGradient-8">
            <stop stop-color="#7093FF" offset="0%"></stop>
            <stop stop-color="#3D5AFE" offset="100%"></stop>
        </linearGradient>
        <linearGradient x1="50%" y1="0%" x2="50%" y2="100%" id="linearGradient-9">
            <stop stop-color="#D4E2EE" offset="0%"></stop>
            <stop stop-color="#A9C1D9" offset="100%"></stop>
        </linearGradient>
        <linearGradient x1="50%" y1="0%" x2="50%" y2="100%" id="linearGradient-10">
            <stop stop-color="#315CE0" offset="0%"></stop>
            <stop stop-color="#2D49E8" offset="100%"></stop>
        </linearGradient>
        <linearGradient x1="50%" y1="0%" x2="50%" y2="100%" id="linearGradient-11">
            <stop stop-color="#7093FF" offset="0%"></stop>
            <stop stop-color="#3D5AFE" offset="100%"></stop>
        </linearGradient>
        <linearGradient x1="50%" y1="0%" x2="50%" y2="100%" id="linearGradient-12">
            <stop stop-color="#94ADD6" offset="0%"></stop>
            <stop stop-color="#5E7193" offset="100%"></stop>
        </linearGradient>
        <linearGradient x1="50%" y1="0%" x2="50%" y2="100%" id="linearGradient-13">
            <stop stop-color="#94ADD6" offset="0%"></stop>
            <stop stop-color="#5E7193" offset="100%"></stop>
        </linearGradient>
        <linearGradient x1="50%" y1="0%" x2="50%" y2="100%" id="linearGradient-14">
            <stop stop-color="#94ADD6" offset="0%"></stop>
            <stop stop-color="#5E7193" offset="100%"></stop>
        </linearGradient>
        <linearGradient x1="50%" y1="0%" x2="50%" y2="100%" id="linearGradient-15">
            <stop stop-color="#94ADD6" offset="0%"></stop>
            <stop stop-color="#5E7193" offset="100%"></stop>
        </linearGradient>
        <linearGradient x1="50%" y1="0%" x2="50%" y2="100%" id="linearGradient-16">
            <stop stop-color="#94ADD6" offset="0%"></stop>
            <stop stop-color="#5E7193" offset="100%"></stop>
        </linearGradient>
        <linearGradient x1="50%" y1="0%" x2="50%" y2="100%" id="linearGradient-17">
            <stop stop-color="#94ADD6" offset="0%"></stop>
            <stop stop-color="#5E7193" offset="100%"></stop>
        </linearGradient>
        <linearGradient x1="50%" y1="0%" x2="50%" y2="100%" id="linearGradient-18">
            <stop stop-color="#3A485F" offset="0%"></stop>
            <stop stop-color="#1B2331" offset="100%"></stop>
        </linearGradient>
        <linearGradient x1="50%" y1="0%" x2="50%" y2="100%" id="linearGradient-19">
            <stop stop-color="#F2F6FF" offset="0%"></stop>
            <stop stop-color="#E0E9FF" offset="100%"></stop>
        </linearGradient>
        <linearGradient x1="50%" y1="0%" x2="50%" y2="100%" id="linearGradient-20">
            <stop stop-color="#3A485F" offset="0%"></stop>
            <stop stop-color="#1B2331" offset="100%"></stop>
        </linearGradient>
        <linearGradient x1="50%" y1="0%" x2="50%" y2="100%" id="linearGradient-21">
            <stop stop-color="#F2F6FF" offset="0%"></stop>
            <stop stop-color="#E0E9FF" offset="100%"></stop>
        </linearGradient>
        <linearGradient x1="50%" y1="0%" x2="50%" y2="100%" id="linearGradient-22">
            <stop stop-color="#3A485F" offset="0%"></stop>
            <stop stop-color="#1B2331" offset="100%"></stop>
        </linearGradient>
        <linearGradient x1="50%" y1="0%" x2="50%" y2="100%" id="linearGradient-23">
            <stop stop-color="#7093FF" offset="0%"></stop>
            <stop stop-color="#3D5AFE" offset="100%"></stop>
        </linearGradient>
        <linearGradient x1="50%" y1="0%" x2="50%" y2="100%" id="linearGradient-24">
            <stop stop-color="#3A485F" offset="0%"></stop>
            <stop stop-color="#1B2331" offset="100%"></stop>
        </linearGradient>
        <linearGradient x1="50%" y1="0%" x2="50%" y2="100%" id="linearGradient-25">
            <stop stop-color="#3A485F" offset="0%"></stop>
            <stop stop-color="#1B2331" offset="100%"></stop>
        </linearGradient>
        <linearGradient x1="50%" y1="0%" x2="50%" y2="100%" id="linearGradient-26">
            <stop stop-color="#3A485F" offset="0%"></stop>
            <stop stop-color="#1B2331" offset="100%"></stop>
        </linearGradient>
        <linearGradient x1="50%" y1="0%" x2="50%" y2="100%" id="linearGradient-27">
            <stop stop-color="#657897" offset="0%"></stop>
            <stop stop-color="#36435B" offset="100%"></stop>
        </linearGradient>
        <linearGradient x1="50%" y1="0%" x2="50%" y2="100%" id="linearGradient-28">
            <stop stop-color="#657897" offset="0%"></stop>
            <stop stop-color="#36435B" offset="100%"></stop>
        </linearGradient>
        <linearGradient x1="50%" y1="0%" x2="50%" y2="100%" id="linearGradient-29">
            <stop stop-color="#D4E2EE" offset="0%"></stop>
            <stop stop-color="#A9C1D9" offset="100%"></stop>
        </linearGradient>
        <linearGradient x1="50%" y1="0%" x2="50%" y2="100%" id="linearGradient-30">
            <stop stop-color="#F2F6FF" offset="0%"></stop>
            <stop stop-color="#E0E9FF" offset="100%"></stop>
        </linearGradient>
        <linearGradient x1="50%" y1="0%" x2="50%" y2="97.0822228%" id="linearGradient-31">
            <stop stop-color="#CBDAEE" offset="0%"></stop>
            <stop stop-color="#B4CAED" offset="100%"></stop>
        </linearGradient>
        <linearGradient x1="50%" y1="0%" x2="50%" y2="100%" id="linearGradient-32">
            <stop stop-color="#3A485F" offset="0%"></stop>
            <stop stop-color="#1B2331" offset="100%"></stop>
        </linearGradient>
        <linearGradient x1="50%" y1="0%" x2="50%" y2="100%" id="linearGradient-33">
            <stop stop-color="#3A485F" offset="0%"></stop>
            <stop stop-color="#1B2331" offset="100%"></stop>
        </linearGradient>
        <linearGradient x1="50%" y1="0%" x2="50%" y2="100%" id="linearGradient-34">
            <stop stop-color="#3A485F" offset="0%"></stop>
            <stop stop-color="#1B2331" offset="100%"></stop>
        </linearGradient>
        <linearGradient x1="50%" y1="0%" x2="50%" y2="100%" id="linearGradient-35">
            <stop stop-color="#3A485F" offset="0%"></stop>
            <stop stop-color="#1B2331" offset="100%"></stop>
        </linearGradient>
        <linearGradient x1="50%" y1="0%" x2="50%" y2="97.0822228%" id="linearGradient-36">
            <stop stop-color="#CBDAEE" offset="0%"></stop>
            <stop stop-color="#B4CAED" offset="100%"></stop>
        </linearGradient>
        <linearGradient x1="50%" y1="0%" x2="50%" y2="97.0822228%" id="linearGradient-37">
            <stop stop-color="#CBDAEE" offset="0%"></stop>
            <stop stop-color="#B4CAED" offset="100%"></stop>
        </linearGradient>
        <linearGradient x1="50%" y1="0%" x2="50%" y2="100%" id="linearGradient-38">
            <stop stop-color="#657897" offset="0%"></stop>
            <stop stop-color="#36435B" offset="100%"></stop>
        </linearGradient>
        <linearGradient x1="50%" y1="0%" x2="50%" y2="100%" id="linearGradient-39">
            <stop stop-color="#D4E2EE" offset="0%"></stop>
            <stop stop-color="#A9C1D9" offset="100%"></stop>
        </linearGradient>
        <linearGradient x1="50%" y1="0%" x2="50%" y2="100%" id="linearGradient-40">
            <stop stop-color="#3A485F" offset="0%"></stop>
            <stop stop-color="#1B2331" offset="100%"></stop>
        </linearGradient>
        <linearGradient x1="50%" y1="0%" x2="50%" y2="100%" id="linearGradient-41">
            <stop stop-color="#94ADD6" offset="0%"></stop>
            <stop stop-color="#5E7193" offset="100%"></stop>
        </linearGradient>
        <linearGradient x1="50%" y1="0%" x2="50%" y2="100%" id="linearGradient-42">
            <stop stop-color="#3A485F" offset="0%"></stop>
            <stop stop-color="#1B2331" offset="100%"></stop>
        </linearGradient>
        <linearGradient x1="50%" y1="0%" x2="50%" y2="100%" id="linearGradient-43">
            <stop stop-color="#94ADD6" offset="0%"></stop>
            <stop stop-color="#5E7193" offset="100%"></stop>
        </linearGradient>
        <linearGradient x1="50%" y1="0%" x2="50%" y2="100%" id="linearGradient-44">
            <stop stop-color="#3A485F" offset="0%"></stop>
            <stop stop-color="#1B2331" offset="100%"></stop>
        </linearGradient>
        <linearGradient x1="50%" y1="0%" x2="50%" y2="100%" id="linearGradient-45">
            <stop stop-color="#3A485F" offset="0%"></stop>
            <stop stop-color="#1B2331" offset="100%"></stop>
        </linearGradient>
        <linearGradient x1="50%" y1="0%" x2="50%" y2="97.0822228%" id="linearGradient-46">
            <stop stop-color="#CBDAEE" offset="0%"></stop>
            <stop stop-color="#B4CAED" offset="100%"></stop>
        </linearGradient>
        <linearGradient x1="50%" y1="0%" x2="50%" y2="97.0822228%" id="linearGradient-47">
            <stop stop-color="#CBDAEE" offset="0%"></stop>
            <stop stop-color="#B4CAED" offset="100%"></stop>
        </linearGradient>
        <linearGradient x1="50%" y1="0%" x2="50%" y2="100%" id="linearGradient-48">
            <stop stop-color="#F2F6FF" offset="0%"></stop>
            <stop stop-color="#E0E9FF" offset="100%"></stop>
        </linearGradient>
        <linearGradient x1="50%" y1="0%" x2="50%" y2="100%" id="linearGradient-49">
            <stop stop-color="#3A485F" offset="0%"></stop>
            <stop stop-color="#1B2331" offset="100%"></stop>
        </linearGradient>
        <linearGradient x1="50%" y1="0%" x2="50%" y2="100%" id="linearGradient-50">
            <stop stop-color="#3A485F" offset="0%"></stop>
            <stop stop-color="#1B2331" offset="100%"></stop>
        </linearGradient>
        <linearGradient x1="50%" y1="0%" x2="50%" y2="100%" id="linearGradient-51">
            <stop stop-color="#3A485F" offset="0%"></stop>
            <stop stop-color="#1B2331" offset="100%"></stop>
        </linearGradient>
        <linearGradient x1="50%" y1="0%" x2="50%" y2="100%" id="linearGradient-52">
            <stop stop-color="#F2F6FF" offset="0%"></stop>
            <stop stop-color="#E0E9FF" offset="100%"></stop>
        </linearGradient>
        <linearGradient x1="50%" y1="0%" x2="50%" y2="100%" id="linearGradient-53">
            <stop stop-color="#F2F6FF" offset="0%"></stop>
            <stop stop-color="#E0E9FF" offset="100%"></stop>
        </linearGradient>
        <linearGradient x1="50%" y1="0%" x2="50%" y2="100%" id="linearGradient-54">
            <stop stop-color="#94ADD6" offset="0%"></stop>
            <stop stop-color="#5E7193" offset="100%"></stop>
        </linearGradient>
        <linearGradient x1="50%" y1="0%" x2="50%" y2="100%" id="linearGradient-55">
            <stop stop-color="#315CE0" offset="0%"></stop>
            <stop stop-color="#2D49E8" offset="100%"></stop>
        </linearGradient>
        <linearGradient x1="50%" y1="0%" x2="50%" y2="100%" id="linearGradient-56">
            <stop stop-color="#7093FF" offset="0%"></stop>
            <stop stop-color="#3D5AFE" offset="100%"></stop>
        </linearGradient>
        <linearGradient x1="50%" y1="0%" x2="50%" y2="100%" id="linearGradient-57">
            <stop stop-color="#D4E2EE" offset="0%"></stop>
            <stop stop-color="#A9C1D9" offset="100%"></stop>
        </linearGradient>
        <linearGradient x1="50%" y1="0%" x2="50%" y2="100%" id="linearGradient-58">
            <stop stop-color="#315CE0" offset="0%"></stop>
            <stop stop-color="#2D49E8" offset="100%"></stop>
        </linearGradient>
        <linearGradient x1="50%" y1="0%" x2="50%" y2="100%" id="linearGradient-59">
            <stop stop-color="#7093FF" offset="0%"></stop>
            <stop stop-color="#3D5AFE" offset="100%"></stop>
        </linearGradient>
        <linearGradient x1="50%" y1="0%" x2="50%" y2="100%" id="linearGradient-60">
            <stop stop-color="#94ADD6" offset="0%"></stop>
            <stop stop-color="#5E7193" offset="100%"></stop>
        </linearGradient>
        <linearGradient x1="50%" y1="0%" x2="50%" y2="100%" id="linearGradient-61">
            <stop stop-color="#94ADD6" offset="0%"></stop>
            <stop stop-color="#5E7193" offset="100%"></stop>
        </linearGradient>
        <linearGradient x1="50%" y1="0%" x2="50%" y2="100%" id="linearGradient-62">
            <stop stop-color="#94ADD6" offset="0%"></stop>
            <stop stop-color="#5E7193" offset="100%"></stop>
        </linearGradient>
        <linearGradient x1="50%" y1="0%" x2="50%" y2="100%" id="linearGradient-63">
            <stop stop-color="#94ADD6" offset="0%"></stop>
            <stop stop-color="#5E7193" offset="100%"></stop>
        </linearGradient>
    </defs>
    <g id="dev-first-2" stroke="none" stroke-width="1" fill="none" fill-rule="evenodd">
        <g id="03_empty_state_b" transform="translate(-712.000000, -285.000000)">
            <g id="no_logs" transform="translate(712.000000, 285.000000)">
                <g id="Group-3" transform="translate(14.540320, 99.151577)">
                    <path d="M32.16856,6.47911973 L18.86296,0.396719728 C17.73976,-0.116880272 16.45176,-0.132480272 15.31616,0.353919728 L0.91016,6.52231973 L16.03496,14.3935197 L32.16856,6.47911973 Z" id="Fill-3" fill="url(#linearGradient-1)"></path>
                    <path d="M16.0756,51.1707197 L33.4912,43.7071197 L33.4912,8.36191973 C33.4912,6.95711973 32.0548,6.00991973 30.7636,6.56311973 L16.0756,12.8583197 L16.0756,51.1707197 Z" id="Fill-5" fill="url(#linearGradient-2)"></path>
                    <path d="M20.191,25.6438797 C20.281,25.8454797 20.1906,26.0818797 19.989,26.1722797 L16.2386,27.8462797 C16.1858,27.8698797 16.1302,27.8810797 16.0758,27.8810797 C15.923,27.8810797 15.7766,27.7926797 15.7102,27.6438797 C15.6202,27.4422797 15.7106,27.2058797 15.9126,27.1154797 L19.6626,25.4414797 C19.8642,25.3522797 20.101,25.4418797 20.191,25.6438797 Z M27.6874,20.1900397 C27.7774,20.3916397 27.687,20.6280397 27.4854,20.7180397 L16.2386,25.7388397 C16.1858,25.7624397 16.1302,25.7736397 16.0758,25.7736397 C15.923,25.7736397 15.7766,25.6852397 15.7102,25.5364397 C15.6202,25.3348397 15.7106,25.0984397 15.9126,25.0080397 L27.159,19.9876397 C27.361,19.8984397 27.5974,19.9884397 27.6874,20.1900397 Z" id="Combined-Shape" fill="url(#linearGradient-3)"></path>
                    <path d="M16.0756,51.1707197 L6.03961325e-14,43.7071197 L6.03961325e-14,8.09111973 C6.03961325e-14,6.83311973 1.3048,6.00031973 2.4456,6.52991973 L16.0756,12.8583197 L16.0756,51.1707197 Z" id="Fill-11" fill="#FFFFFF"></path>
                    <path d="M1.7972,22.9697197 L14.1216,28.8089197 C14.3212,28.9037197 14.4064,29.1421197 14.3116,29.3417197 C14.2432,29.4861197 14.0996,29.5705197 13.95,29.5705197 C13.8924,29.5705197 13.834,29.5581197 13.7788,29.5321197 L1.4544,23.6929197 C1.2548,23.5981197 1.1696,23.3597197 1.2644,23.1601197 C1.3588,22.9601197 1.598,22.8757197 1.7972,22.9697197 Z M1.7972,20.9456797 L14.1216,26.7848797 C14.3212,26.8796797 14.4064,27.1180797 14.3116,27.3176797 C14.2432,27.4620797 14.0996,27.5464797 13.95,27.5464797 C13.8924,27.5464797 13.834,27.5340797 13.7788,27.5080797 L1.4544,21.6688797 C1.2548,21.5740797 1.1696,21.3356797 1.2644,21.1360797 C1.3588,20.9360797 1.598,20.8516797 1.7972,20.9456797 Z M1.79724,25.0088797 L5.21164,26.6264797 C5.41124,26.7212797 5.49644,26.9596797 5.40164,27.1592797 C5.33324,27.3036797 5.18964,27.3880797 5.04004,27.3880797 C4.98244,27.3880797 4.92404,27.3756797 4.86884,27.3496797 L1.45444,25.7316797 C1.25484,25.6372797 1.16964,25.3984797 1.26444,25.1988797 C1.35884,24.9992797 1.59804,24.9140797 1.79724,25.0088797 Z M1.7972,18.5644397 L14.1216,24.4036397 C14.3212,24.4984397 14.4064,24.7368397 14.3116,24.9364397 C14.2432,25.0808397 14.0996,25.1652397 13.95,25.1652397 C13.8924,25.1652397 13.834,25.1528397 13.7788,25.1268397 L1.4544,19.2876397 C1.2548,19.1928397 1.1696,18.9544397 1.2644,18.7548397 C1.3588,18.5552397 1.598,18.4700397 1.7972,18.5644397 Z M1.6258,12.1517597 L7.0514,14.6705597 L7.0514,19.5369597 L1.6258,17.0181597 L1.6258,12.1517597 Z" id="Combined-Shape" fill="url(#linearGradient-4)"></path>
                    <path d="M16.0754,17.6091997 C16.0218,17.6091997 15.967,17.5983997 15.9146,17.5751997 L9.703,14.8459997 C9.5006,14.7571997 9.4086,14.5211997 9.4978,14.3187997 C9.5866,14.1167997 9.823,14.0247997 10.025,14.1135997 L16.2366,16.8427997 C16.4386,16.9315997 16.5306,17.1675997 16.4418,17.3699997 C16.3758,17.5195997 16.2294,17.6091997 16.0754,17.6091997" id="Fill-23" fill="url(#linearGradient-5)"></path>
                </g>
                <path d="M178.841424,75.0686789 L17.5024,145.104697 L6.926,143.653897 L6.926,149.696297 L26.356,158.677097 L195.4092,87.1218966 C195.4092,85.3146966 195.5248,82.4070966 195.4092,81.0798966 C194.8576,79.9442966 192.6212,81.9330966 192.3972,80.7050966 C192.0212,78.64883 187.502608,76.770024 178.841424,75.0686789 Z" id="Fill-30" fill="url(#linearGradient-6)"></path>
                <path d="M177.1024,71.6129366 L194.231092,79.400333 C194.583499,79.974579 194.984072,80.5347376 195.435,81.0798966 L195.435,81.0798966 L26.3814,152.634697 L6.9514,143.653897 L177.1024,71.6129366 Z" id="Combined-Shape" fill="url(#linearGradient-7)"></path>
                <path d="M225.49716,80.8982566 L210.52436,74.0534566 C209.25996,73.4754566 207.81036,73.4582566 206.53276,74.0054566 L190.32196,80.9470566 L207.34156,89.8046566 L225.49716,80.8982566 Z" id="Fill-34" fill="url(#linearGradient-8)"></path>
                <path d="M207.3874,137.912897 L226.9854,129.513697 L226.9854,83.0168966 C226.9854,81.4360966 225.369,80.3704966 223.9158,80.9928966 L207.3874,88.0768966 L207.3874,137.912897 Z" id="Fill-36" fill="url(#linearGradient-9)"></path>
                <path d="M217.5518,110.995257 C217.6422,111.197257 217.5514,111.433657 217.3494,111.523657 L207.5502,115.898057 C207.4974,115.921657 207.4422,115.932857 207.3878,115.932857 C207.2346,115.932857 207.0886,115.844457 207.0222,115.695657 C206.9318,115.494057 207.0226,115.257657 207.2246,115.167257 L217.0238,110.793257 C217.2254,110.702857 217.4622,110.793657 217.5518,110.995257 Z M217.5518,105.641737 C217.6422,105.843737 217.5514,106.080137 217.3494,106.170137 L207.5502,110.544537 C207.4974,110.568137 207.4422,110.579337 207.3878,110.579337 C207.2346,110.579337 207.0886,110.490937 207.0222,110.342137 C206.9318,110.140537 207.0226,109.904137 207.2246,109.813737 L217.0238,105.439737 C217.2254,105.349737 217.4622,105.440537 217.5518,105.641737 Z M211.973,102.485257 C212.063,102.686857 211.9726,102.923657 211.7706,103.013657 L207.5502,104.897657 C207.4974,104.921257 207.4422,104.932457 207.3878,104.932457 C207.2346,104.932457 207.0886,104.844057 207.0222,104.695257 C206.9318,104.493657 207.0226,104.257257 207.2246,104.166857 L211.445,102.282857 C211.6462,102.192857 211.883,102.283657 211.973,102.485257 Z M220.409,96.3475766 C220.499,96.5495766 220.4086,96.7859766 220.2066,96.8759766 L207.5502,102.525977 C207.4974,102.549577 207.4422,102.560777 207.3878,102.560777 C207.2346,102.560777 207.0886,102.472377 207.0222,102.323577 C206.9318,102.121977 207.0226,101.885577 207.2246,101.795177 L219.8806,96.1455766 C220.0822,96.0551766 220.319,96.1463766 220.409,96.3475766 Z" id="Combined-Shape" fill="url(#linearGradient-10)"></path>
                <path d="M207.3874,137.912897 L189.2966,129.513697 L189.2966,82.7120966 C189.2966,81.2968966 190.7654,80.3592966 192.049,80.9552966 L207.3874,88.0768966 L207.3874,137.912897 Z" id="Fill-46" fill="#FFFFFF"></path>
                <path d="M191.298,98.2172166 L205.1668,104.788417 C205.3668,104.883217 205.452,105.121617 205.3568,105.321217 C205.2884,105.465617 205.1452,105.550017 204.9952,105.550017 C204.9376,105.550017 204.8796,105.537617 204.8244,105.511617 L190.9556,98.9404166 C190.7556,98.8456166 190.6704,98.6072166 190.7656,98.4076166 C190.86,98.2084166 191.0996,98.1232166 191.298,98.2172166 Z M191.298,96.2289366 L205.1668,102.800137 C205.3668,102.894937 205.452,103.133337 205.3568,103.332937 C205.2884,103.477337 205.1452,103.561737 204.9952,103.561737 C204.9376,103.561737 204.8796,103.549337 204.8244,103.523337 L190.9556,96.9521366 C190.7556,96.8573366 190.6704,96.6189366 190.7656,96.4193366 C190.86,96.2201366 191.0996,96.1349366 191.298,96.2289366 Z M191.29784,100.205897 L195.14024,102.026297 C195.34024,102.121097 195.42544,102.359497 195.33024,102.559097 C195.26184,102.703497 195.11864,102.787897 194.96864,102.787897 C194.91104,102.787897 194.85304,102.775497 194.79784,102.749497 L190.95584,100.929097 C190.75584,100.834297 190.67064,100.595897 190.76544,100.396297 C190.86024,100.196297 191.09944,100.111897 191.29784,100.205897 Z M191.298,94.2404566 L205.1668,100.811657 C205.3668,100.906457 205.452,101.144857 205.3568,101.344457 C205.2884,101.488857 205.1452,101.573257 204.9952,101.573257 C204.9376,101.573257 204.8796,101.560857 204.8244,101.534857 L190.9556,94.9636566 C190.7556,94.8688566 190.6704,94.6304566 190.7656,94.4308566 C190.86,94.2316566 191.0996,94.1460566 191.298,94.2404566 Z M191.298,92.2519766 L205.1668,98.8231766 C205.3668,98.9179766 205.452,99.1563766 205.3568,99.3559766 C205.2884,99.5003766 205.1452,99.5847766 204.9952,99.5847766 C204.9376,99.5847766 204.8796,99.5723766 204.8244,99.5463766 L190.9556,92.9751766 C190.7556,92.8803766 190.6704,92.6419766 190.7656,92.4423766 C190.86,92.2431766 191.0996,92.1579766 191.298,92.2519766 Z M191.12684,85.1021766 L197.23244,87.9369766 L197.23244,93.4133766 L191.12684,90.5785766 L191.12684,85.1021766 Z" id="Combined-Shape" fill="url(#linearGradient-11)"></path>
                <path d="M207.3874,95.6537366 L203.367,93.8877366 C203.1642,93.7985366 202.929,93.8909366 202.8398,94.0929366 C202.751,94.2953366 202.843,94.5309366 203.0454,94.6201366 L207.2266,96.4569366 C207.279,96.4801366 207.3334,96.4909366 207.387,96.4909366 L207.3874,96.4909366 L207.3874,95.6537366 Z" id="Fill-60" fill="url(#linearGradient-12)"></path>
                <path d="M200.23624,90.2211366 L207.22664,93.2923366 C207.27864,93.3151366 207.33344,93.3259366 207.38704,93.3259366 L207.38744,93.3259366 L207.38744,92.4887366 L200.55824,89.4887366 C200.35544,89.3995366 200.11984,89.4923366 200.03064,89.6943366 C199.94224,89.8963366 200.03384,90.1323366 200.23624,90.2211366" id="Fill-62" fill="url(#linearGradient-13)"></path>
                <path d="M204.69168,109.341057 C204.61208,109.547457 204.71448,109.779057 204.92048,109.858657 L207.38728,110.812657 L207.38728,109.955057 L205.20888,109.112657 C205.00368,109.032657 204.77128,109.135057 204.69168,109.341057" id="Fill-64" fill="url(#linearGradient-14)"></path>
                <path d="M196.27528,109.862537 C196.18648,110.064937 196.27848,110.300937 196.48088,110.389337 L207.38728,115.181337 L207.38728,114.307337 L196.80248,109.657337 C196.59968,109.567737 196.36408,109.660537 196.27528,109.862537" id="Fill-66" fill="url(#linearGradient-15)"></path>
                <path d="M207.3874,117.464097 L199.9878,114.213697 C199.785,114.124497 199.5494,114.216897 199.4606,114.418897 C199.3718,114.621297 199.4634,114.856897 199.6658,114.946097 L207.3874,118.338097 L207.3874,117.464097 Z" id="Fill-68" fill="url(#linearGradient-16)"></path>
                <path d="M189.29676,107.317817 L192.64276,108.787817 C192.69516,108.811017 192.74996,108.821817 192.80356,108.821817 C192.95716,108.821817 193.10436,108.732617 193.17036,108.582617 C193.25876,108.380217 193.16716,108.144217 192.96476,108.055417 L189.29676,106.443817 L189.29676,107.317817 Z" id="Fill-70" fill="url(#linearGradient-17)"></path>
                <path d="M10.436,209.563897 L0,207.498697 L0,214.245097 L31.7056,229.056297 L287.1232,120.281497 L287.1232,113.974058 C270.329616,106.297009 261.080694,102.821382 259.376435,103.547178 C204.056338,127.106449 121.076193,162.445355 10.436,209.563897 Z" id="Fill-72" fill="url(#linearGradient-18)"></path>
                <path d="M255.14516,98.8397334 L287.12916,113.769733 L32.14896,222.358417 L0.00016,207.498817 L255.14516,98.8397334 Z" id="Combined-Shape" fill="url(#linearGradient-19)"></path>
                <path d="M8.97608,144.589857 L9.95488,145.042257 L192.73888,67.1998566 C192.81328,66.8770566 192.89648,66.5522566 192.98448,66.2262566 L8.97608,144.589857 Z" id="Fill-77" fill="#FFFFFF"></path>
                <path d="M194.09052,79.1548966 C193.95412,78.9220966 193.82212,78.6880966 193.70092,78.4512966 L23.08532,151.111297 L24.06452,151.564097 L194.09052,79.1548966 Z" id="Fill-79" fill="#FFFFFF"></path>
                <path d="M28.28232,220.571497 L285.79632,110.903897 C285.64112,110.680297 285.48912,110.451897 285.33232,110.231897 L27.30352,220.119097 L28.28232,220.571497 Z" id="Fill-81" fill="#FFFFFF"></path>
                <path d="M3.18464,208.971137 L4.16344,209.423537 L270.89464,95.8303366 C270.63784,95.6491366 270.38144,95.4659366 270.12344,95.2899366 L3.18464,208.971137 Z" id="Fill-83" fill="#FFFFFF"></path>
                <polygon id="Fill-85" fill="url(#linearGradient-20)" points="278.681117 160.342141 123.29032 225.276897 115.95232 224.350097 115.95232 229.970897 140.83952 241.473697 301.00672 173.460897 301.00672 168.220884"></polygon>
                <path d="M275.87848,156.439937 L301.07748,168.202937 L141.28248,236.057657 L115.95248,224.350057 L275.87848,156.439937 Z" id="Combined-Shape" fill="url(#linearGradient-21)"></path>
                <path d="M172.89324,176.244937 L149.97204,161.022937 C148.48804,159.663337 146.49404,159.002537 144.49164,159.206137 L114.32004,157.838137 C113.93764,157.877337 112.84444,162.602537 112.66204,162.875337 C112.35804,163.331337 112.37364,163.985737 112.84764,164.416137 L133.99284,183.634937 C135.47524,184.982537 137.46084,185.635737 139.45404,185.432137 L170.25564,182.283737 C170.76444,182.231737 171.12244,181.891337 171.25964,181.478137 C171.39684,181.064537 173.27004,176.590137 172.89324,176.244937" id="Fill-90" fill="url(#linearGradient-22)"></path>
                <path d="M172.51084,175.305097 L151.54724,156.095897 C150.06324,154.735897 148.06924,154.074697 146.06684,154.279097 L115.09924,157.433897 C114.07964,157.537897 113.66444,158.799497 114.42284,159.488697 L135.56804,178.707497 C137.05044,180.054697 139.03604,180.708297 141.02924,180.504697 L171.83124,177.356297 C172.84804,177.252297 173.26444,175.995497 172.51084,175.305097" id="Fill-92" fill="url(#linearGradient-23)"></path>
                <path d="M137.59504,158.843937 L154.57604,174.527937 L149.10504,175.006937 L132.91147,160.024493 C132.698655,159.834705 132.535953,159.609625 132.424319,159.365945 L137.59504,158.843937 Z M145.95904,157.999937 L163.05104,173.784937 L157.58104,174.263937 L141.38803,159.282293 C141.144368,159.06489 140.966428,158.801177 140.855657,158.516247 L145.95904,157.999937 Z M129.23204,159.686937 L139.03495,168.969413 C139.259943,169.169953 139.428895,169.409969 139.54069,169.669728 L134.32404,170.126937 L124.43455,160.766613 C124.253077,160.604775 124.108042,160.417294 124.00004,160.214508 L129.23204,159.686937 Z" id="Shape" fill="#FFFFFF"></path>
                <path d="M112.96512,164.352777 C112.92192,164.352777 112.87792,164.347977 112.83392,164.338377 C112.51072,164.266377 112.30672,163.945577 112.37912,163.622377 L128.01512,93.4659766 C128.08712,93.1427766 128.40992,92.9383766 128.73112,93.0111766 C129.05472,93.0831766 129.25832,93.4035766 129.18632,93.7271766 L113.54992,163.883177 C113.48792,164.162777 113.23992,164.352777 112.96512,164.352777" id="Fill-100" fill="url(#linearGradient-24)"></path>
                <path d="M172.94324,177.687897 C172.69804,177.687897 172.46804,177.536297 172.37924,177.292697 C165.44124,158.161897 148.77084,112.400697 143.61804,99.0646966 L149.35204,154.963897 C149.38604,155.293897 149.14604,155.588297 148.81644,155.622297 C148.48844,155.651897 148.19244,155.415897 148.15844,155.086697 L141.82324,93.3266966 L143.04284,94.6398966 C144.01564,95.6878966 166.60644,157.854697 173.50724,176.883097 C173.62004,177.195097 173.45924,177.539097 173.14804,177.651897 C173.08044,177.676697 173.01124,177.687897 172.94324,177.687897" id="Fill-102" fill="url(#linearGradient-25)"></path>
                <path d="M137.40536,183.433217 L137.39256,183.433217 C137.06136,183.426017 136.79816,183.152017 136.80536,182.820817 L138.65096,94.2276166 C138.65816,93.8964166 138.93016,93.6316166 139.26336,93.6402035 C139.59456,93.6472166 139.85776,93.9212166 139.85056,94.2524166 L138.00496,182.845617 C137.99816,183.172817 137.73096,183.433217 137.40536,183.433217" id="Fill-104" fill="url(#linearGradient-26)"></path>
                <path d="M122.5616,95.1044966 C122.6148,95.7648966 122.1224,96.3436966 121.462,96.3968966 C117.701435,96.699579 115.56368,101.13334 115.058739,105.401922 C124.909644,110.24413 137.044201,116.252512 139.83828,117.828617 C144.03308,120.195017 149.22908,118.622217 151.41988,116.814217 C151.93148,116.393017 152.68788,116.465017 153.10948,116.975817 C153.53108,117.487017 153.45868,118.243417 152.94788,118.665417 C151.18028,120.124217 148.00468,121.425817 144.58308,121.425817 C142.61628,121.425817 140.56868,120.996217 138.65868,119.918617 C133.94988,117.262217 100.97428,101.175017 100.64148,101.012617 C100.04588,100.722217 99.79868,100.003417 100.08908,99.4082166 C100.37948,98.8122166 101.09748,98.5646166 101.69348,98.8554166 C102.194765,99.0998703 106.855476,101.373638 112.781657,104.283 C113.79448,97.5895633 117.65348,94.2957773 121.2692,94.0044966 C121.9256,93.9456966 122.5084,94.4432966 122.5616,95.1044966 Z" id="Combined-Shape" fill="url(#linearGradient-27)"></path>
                <path d="M130.48464,115.661537 C130.45624,115.661537 130.42744,115.660737 130.39864,115.658737 C129.73744,115.611537 129.23944,115.037537 129.28624,114.376737 C129.84544,106.507937 134.04904,102.667537 137.96664,102.351937 C138.62304,102.294337 139.20584,102.790737 139.25904,103.451937 C139.31224,104.112337 138.81984,104.691137 138.15944,104.744337 C134.16344,105.065937 131.99984,110.051137 131.68064,114.546337 C131.63544,115.178737 131.10864,115.661537 130.48464,115.661537" id="Fill-112" fill="url(#linearGradient-28)"></path>
                <path d="M41.12352,28.5886966 L33.14432,32.8954966 C32.59632,33.1914966 31.93592,33.1922966 31.38712,32.8974966 L29.37992,31.8202966 C28.66232,31.4350966 28.22032,30.6810966 28.23472,29.8670966 L28.40072,20.3998966 L41.12352,28.5886966 Z" id="Fill-114" fill="url(#linearGradient-29)"></path>
                <path d="M69.73428,58.4832166 C91.07268,69.2220166 95.46228,71.8464166 101.04068,78.4220166 C106.61868,84.9976166 111.48988,93.4664166 128.39828,101.760817 C145.30668,110.055217 160.15148,111.424417 166.39508,110.867217 C172.63908,110.310417 183.90028,104.266017 181.60548,97.9076166 C179.30988,91.5488166 172.15908,75.2492166 164.37748,70.9712166 C144.72548,60.1680166 132.24068,53.5428166 124.03108,50.4592166 C116.80188,47.7440166 112.07588,50.8236166 106.01668,52.6844166 C90.94668,45.4696166 39.16868,20.5636166 33.14468,17.6216166 C27.12028,14.6792166 22.03828,18.8660166 29.39508,23.0268166 C36.75228,27.1880166 65.59428,42.8812166 69.73428,58.4832166" id="Fill-116" fill="url(#linearGradient-30)"></path>
                <path d="M167.20144,108.665857 C160.95784,109.223057 149.11064,109.575857 132.20224,101.281457 C115.29384,92.9870566 109.40704,81.5114566 103.82864,74.9358566 C98.25064,68.3602566 92.80384,65.8318566 71.46584,55.0930566 C56.30464,35.2026566 49.89264,29.8266566 42.53544,25.6654566 C40.95864,24.7734566 30.55304,17.5050566 30.00624,16.6810566 C25.67904,16.2114566 23.38344,19.6266566 29.39504,23.0270566 C36.75224,27.1878566 65.59424,42.8814566 69.73424,58.4830566 C91.07264,69.2222566 95.46224,71.8466566 101.04064,78.4222566 C106.61864,84.9978566 111.48984,93.4662566 128.39824,101.760657 C145.30664,110.055057 160.15144,111.424257 166.39504,110.867457 C170.95624,110.460257 178.18944,107.124257 180.86464,102.877057 C177.56464,105.224657 170.30024,108.389457 167.20144,108.665857" id="Fill-118" fill="url(#linearGradient-31)"></path>
                <path d="M153.44168,84.1523766 C159.16648,83.5775766 165.32888,80.7211766 168.82288,78.4739766 C169.64048,77.9479766 170.73568,78.2231766 171.21528,79.0691766 C174.28088,84.4791766 176.63688,89.5239766 177.76528,91.9131766 C179.46288,96.7759766 171.05448,103.571977 159.72048,102.261977 C158.28048,102.095177 157.07368,101.087977 156.63688,99.7055766 C155.04128,94.6539766 153.70368,90.4371766 152.25168,85.9523766 C151.97888,85.1095766 152.56008,84.2407766 153.44168,84.1523766" id="Fill-120" fill="url(#linearGradient-32)"></path>
                <path d="M128.24696,74.7679766 L123.40656,72.2715766 C122.54976,71.8299766 121.50616,72.3075766 121.28296,73.2455766 C120.58136,76.1979766 119.21816,81.9531766 118.55136,84.8987766 C118.29816,86.0171766 118.73896,87.1735766 119.66616,87.8483766 C121.31416,89.0479766 123.10736,90.2143766 124.98216,91.3311766 C126.04416,91.9639766 127.41256,91.3491766 127.63736,90.1339766 L129.87016,78.0787766 C130.11816,76.7379766 129.45896,75.3927766 128.24696,74.7679766" id="Fill-122" fill="url(#linearGradient-33)"></path>
                <path d="M117.85692,69.4714966 L114.03012,67.2110966 C113.54612,66.9254966 112.92292,67.1750966 112.77052,67.7158966 L111.55572,72.0258966 C111.43052,72.4690966 111.57572,72.9442966 111.92732,73.2414966 L115.61892,76.3670966 C116.09732,76.7718966 116.83412,76.5426966 116.99852,75.9374966 L118.39332,70.7910966 C118.53172,70.2802966 118.31252,69.7402966 117.85692,69.4714966" id="Fill-124" fill="url(#linearGradient-34)"></path>
                <path d="M136.51864,95.5384966 C140.93544,97.4660966 145.10824,98.9704966 148.29424,99.8628966 C149.82744,100.292497 151.23504,98.8716966 150.79504,97.3416966 L147.19264,84.8204966 C146.87104,83.7020966 146.12064,82.7560966 145.10544,82.1884966 L138.38304,78.4284966 C137.36624,77.8596966 136.09864,78.5092966 135.96664,79.6668966 L134.54624,92.1148966 C134.38104,93.5648966 135.18104,94.9548966 136.51864,95.5384966" id="Fill-126" fill="url(#linearGradient-35)"></path>
                <path d="M178.40732,99.9232566 C176.13452,102.544857 170.26492,105.894457 162.48812,106.566857 C161.83732,106.623257 161.30412,107.085257 161.13732,107.716457 C160.87612,108.705657 160.19372,109.928457 159.09972,110.756457 C162.13012,111.027257 164.61412,111.026457 166.39532,110.867257 C170.06892,110.539657 175.47932,108.311657 178.84372,105.238057 C179.38172,103.680457 179.65812,101.976457 179.56812,100.332457 C179.53612,99.7380566 178.79732,99.4736566 178.40732,99.9232566" id="Fill-128" fill="url(#linearGradient-36)"></path>
                <path d="M134.27312,104.407457 C139.35752,106.503457 144.16632,107.986257 148.50432,109.005057 C149.24232,108.258657 149.80272,107.377857 150.22952,106.555457 C150.60432,105.832257 150.22232,104.947857 149.43752,104.729857 C145.50792,103.639857 140.01992,101.829457 136.39912,100.061057 C135.63272,99.6866566 134.72392,100.178657 134.61832,101.025057 C134.47032,102.205057 134.35312,103.456257 134.27312,104.407457" id="Fill-130" fill="url(#linearGradient-37)"></path>
                <path d="M74.34952,51.9252166 C73.43872,51.4644166 69.83312,52.1352166 69.71512,53.1492166 C69.51072,54.9024166 71.73392,57.2976166 71.53032,58.9708166 C71.33272,60.5952166 72.12552,62.1772166 73.54472,62.9920166 C81.60272,67.6176166 86.70552,73.8152166 91.94232,74.5088166 C93.26512,74.6840166 95.62272,73.7760166 96.13872,72.4156166 C96.65472,71.0548166 99.78312,65.1948166 95.10112,62.4536166 C89.75032,59.3208166 79.70152,54.6328166 74.34952,51.9252166" id="Fill-132" fill="url(#linearGradient-38)"></path>
                <path d="M71.52784,52.7533366 C70.61704,52.2925366 69.52584,52.8781366 69.40784,53.8921366 C69.20344,55.6453366 68.91224,58.1261366 68.70864,59.7993366 C68.51104,61.4237366 69.30384,63.0053366 70.72344,63.8201366 C78.78104,68.4461366 84.33544,71.1609366 89.05824,73.5277366 C92.21784,75.1109366 92.80104,74.6045366 93.31704,73.2437366 C93.83304,71.8829366 96.96144,66.0229366 92.27944,63.2817366 C86.92864,60.1489366 76.87984,55.4613366 71.52784,52.7533366" id="Fill-134" fill="url(#linearGradient-39)"></path>
                <path d="M107.05284,50.1689766 C103.86484,51.6365766 101.31644,55.2357766 105.80884,57.6105766 C110.30084,59.9849766 121.94284,65.4621766 125.96564,67.5481766 C129.98844,69.6337766 133.10004,68.8153766 135.33884,67.8773766 C140.21964,65.8325766 142.29204,64.7773766 145.12204,63.5421766 C147.95244,62.3061766 148.36724,59.4417766 144.59004,57.3773766 C140.81284,55.3133766 124.92844,48.7577766 122.00284,47.9005766 C119.59084,47.1933766 117.44924,45.3833766 107.05284,50.1689766" id="Fill-136" fill="url(#linearGradient-40)"></path>
                <path d="M108.19304,49.6097766 C105.23144,50.9733766 102.13624,52.3037766 106.30984,54.5097766 C110.48344,56.7161766 121.29944,61.8049766 125.03664,63.7425766 C128.77424,65.6805766 131.66504,64.9201766 133.74504,64.0485766 C138.27944,62.1489766 140.20464,61.1685766 142.83424,60.0205766 C145.46384,58.8729766 146.49664,57.5845766 142.98744,55.6665766 C139.47824,53.7489766 124.07304,46.2853766 121.35504,45.4889766 C119.11424,44.8321766 117.85184,45.1637766 108.19304,49.6097766" id="Fill-138" fill="url(#linearGradient-41)"></path>
                <path d="M133.36552,54.3355766 C133.22032,56.5295766 129.24912,58.0535766 124.49512,57.7391766 C119.74112,57.4251766 116.00512,55.3915766 116.14992,53.1975766 C116.29512,51.0031766 120.26632,49.4795766 125.02032,49.7939766 C129.77432,50.1079766 133.51032,52.1415766 133.36552,54.3355766" id="Fill-140" fill="url(#linearGradient-42)"></path>
                <path d="M131.90476,51.5068566 C131.78876,53.2620566 128.61156,54.4812566 124.80836,54.2300566 C121.00516,53.9784566 118.01636,52.3516566 118.13236,50.5964566 C118.24836,48.8408566 121.42556,47.6220566 125.22876,47.8736566 C129.03196,48.1248566 132.02076,49.7516566 131.90476,51.5068566" id="Fill-142" fill="url(#linearGradient-43)"></path>
                <path d="M124.8712,51.4123366 L124.8712,51.4123366 C123.6488,51.3315366 122.7232,50.2751366 122.8044,49.0527366 L123.1296,44.1339366 C123.2104,42.9115366 124.2668,41.9859366 125.4892,42.0667366 C126.7116,42.1475366 127.6372,43.2039366 127.556,44.4267366 L127.2308,49.3455366 C127.1504,50.5679366 126.0936,51.4931366 124.8712,51.4123366" id="Fill-144" fill="url(#linearGradient-44)"></path>
                <path d="M134.26552,41.9521766 C134.12072,44.1461766 130.14912,45.6701766 125.39512,45.3557766 C120.64112,45.0417766 116.90512,43.0081766 117.04992,40.8141766 C117.19512,38.6197766 121.16632,37.0961766 125.92032,37.4105766 C130.67432,37.7245766 134.41072,39.7581766 134.26552,41.9521766" id="Fill-146" fill="url(#linearGradient-45)"></path>
                <path d="M52.81328,33.0262966 C54.05808,14.1986966 88.13608,1.12189662 128.92928,3.81869662 C130.66168,3.93309662 132.37688,4.07669662 134.07608,4.24309662 C133.44448,4.19429662 132.81128,4.14829662 132.17568,4.10629662 C91.38248,1.40949662 57.30408,14.4862966 56.05928,33.3138966 C54.86768,51.3418966 84.21328,68.1038966 122.52168,71.8626966 C82.63768,68.7586966 51.58808,51.5602966 52.81328,33.0262966 Z M190.02488,23.5748166 C197.09728,29.3820166 200.98728,35.9972166 200.53808,42.7920166 C199.84048,53.3500166 188.81648,62.0984166 172.07488,67.2720166 C187.36648,61.0872166 197.05688,52.1108166 197.75248,41.5900166 C198.16568,35.3456166 195.36688,29.2232166 190.02488,23.5748166 Z" id="Combined-Shape" fill="url(#linearGradient-46)"></path>
                <path d="M38.81336,18.4578566 C36.41616,19.3854566 33.45336,17.5022566 32.19536,14.2518566 C30.93776,11.0014566 31.86136,7.61425662 34.25856,6.68665662 C36.65576,5.75905662 39.61856,7.64225662 40.87656,10.8926566 C42.13416,14.1430566 41.21056,17.5302566 38.81336,18.4578566 L38.81336,18.4578566 Z M41.22496,5.85505662 C40.91616,5.19105662 40.37096,4.66585662 39.69576,4.38265662 L29.41376,0.07065662 C29.08096,-0.06894338 28.88376,0.02145662 28.46776,0.14225662 C27.41776,0.44745662 26.02616,0.97985662 26.08896,1.42305662 L30.27456,17.3802566 L50.12936,30.5394566 L52.28016,29.6358566 L41.22496,5.85505662 Z" id="Fill-150" fill="url(#linearGradient-47)"></path>
                <path d="M36.89812,18.9586166 C34.50092,19.8862166 31.53812,18.0030166 30.28012,14.7526166 C29.02252,11.5022166 29.94612,8.11501662 32.34332,7.18741662 C34.74052,6.25981662 37.70332,8.14301662 38.96092,11.3934166 C40.21892,14.6438166 39.29532,18.0310166 36.89812,18.9586166 L36.89812,18.9586166 Z M39.07372,6.75861662 C38.76532,6.09421662 38.21972,5.56941662 37.54452,5.28621662 L27.26292,0.97421662 C26.51692,0.66141662 25.71452,1.28061662 25.82812,2.08141662 L28.12332,18.2838166 L50.12932,30.5394166 L39.07372,6.75861662 Z" id="Fill-152" fill="url(#linearGradient-48)"></path>
                <path d="M62.36844,34.6527766 L63.26284,34.3071766 C63.71244,34.1335766 64.21444,34.1551766 64.64764,34.3675766 L89.80804,46.6995766 C90.28004,46.9307766 90.25164,47.6123766 89.76204,47.8035766 L88.60644,48.2551766 C88.06924,48.4647766 87.46844,48.4363766 86.95364,48.1767766 L62.31404,35.7547766 C61.84684,35.5191766 61.88044,34.8411766 62.36844,34.6527766" id="Fill-154" fill="url(#linearGradient-49)"></path>
                <path d="M151.69364,78.4260166 C155.76404,77.7760166 160.94364,75.9888166 164.16844,73.8112166 C164.57364,73.5376166 165.10524,73.5488166 165.49444,73.8444166 C166.02844,74.2504166 166.50724,74.6820166 166.89484,75.0920166 C167.33804,75.5604166 167.29684,76.3156166 166.79644,76.7228166 C164.09884,78.9176166 157.09644,81.1968166 152.56084,81.8340166 C152.07604,81.9020166 151.60484,81.6428166 151.39524,81.1996166 C151.23004,80.8504166 151.02804,80.4204166 150.83924,80.0120166 C150.52484,79.3304166 150.95204,78.5444166 151.69364,78.4260166" id="Fill-156" fill="url(#linearGradient-50)"></path>
                <path d="M36.70868,18.5865366 C38.03708,18.0725366 38.87668,16.7493366 39.10108,15.1261366 C37.68388,16.0053366 35.50708,15.3725366 34.83268,12.2033366 C34.86108,10.5921366 35.72148,8.82773662 35.48788,7.81253662 C34.48948,7.31053662 33.41748,7.19133662 32.44508,7.56773662 C31.71388,7.85053662 31.13228,8.38053662 30.71708,9.06813662 C31.81348,9.29893662 33.20628,10.8253366 33.62108,12.8989366 C33.86348,14.6697366 33.42668,18.0329366 35.61308,18.7993366 C35.98588,18.7881366 36.35428,18.7237366 36.70868,18.5865366" id="Fill-158" fill="url(#linearGradient-51)"></path>
                <path d="M36.38876,12.3760166 C36.91356,13.7328166 36.52836,15.1468166 35.52756,15.5340166 C34.52676,15.9212166 33.28996,15.1352166 32.76476,13.7784166 C32.23956,12.4212166 32.62516,11.0076166 33.62596,10.6200166 C34.62676,10.2328166 35.86396,11.0188166 36.38876,12.3760166" id="Fill-160" fill="#394D6E"></path>
                <path d="M35.0868,12.9953366 C35.4536,13.9429366 35.184,14.9301366 34.4852,15.2005366 C33.7864,15.4709366 32.9224,14.9221366 32.556,13.9745366 C32.1892,13.0269366 32.4584,12.0393366 33.1576,11.7689366 C33.8564,11.4985366 34.72,12.0477366 35.0868,12.9953366" id="Fill-162" fill="url(#linearGradient-52)"></path>
                <path d="M126.00772,38.1632966 L189.24812,22.9492966 C176.58412,12.9780966 154.46892,5.50689662 128.92932,3.81889662 C112.90572,2.75929662 97.91932,4.13489662 85.55052,7.33569662 L125.74052,38.0988966 L72.33132,58.2716966 C85.32092,65.4756966 103.74812,70.6328966 124.42212,71.9996966 C139.02532,72.9648966 152.76732,71.9080966 164.45132,69.2904966 L126.00772,38.1632966 Z" id="Fill-164" fill="url(#linearGradient-53)" opacity="0.552060082"></path>
                <path d="M134.41768,39.6525766 C134.27248,41.8465766 130.30088,43.3705766 125.54728,43.0565766 C120.79328,42.7421766 117.05728,40.7085766 117.20208,38.5145766 C117.34728,36.3205766 121.31848,34.7965766 126.07248,35.1109766 C130.82648,35.4249766 134.56248,37.4585766 134.41768,39.6525766" id="Fill-168" fill="url(#linearGradient-54)"></path>
                <path d="M130.2034,38.4834166 C130.1302,39.5882166 128.1302,40.3558166 125.7362,40.1974166 C123.3422,40.0394166 121.4606,39.0154166 121.5338,37.9102166 C121.6066,36.8054166 123.6066,36.0378166 126.0006,36.1962166 C128.395,36.3542166 130.2762,37.3786166 130.2034,38.4834166" id="Fill-170" fill="url(#linearGradient-55)"></path>
                <polygon id="Fill-172" fill="#FFFFFF" points="119.06296 225.787537 120.04176 226.240337 299.31136 149.894737 298.99776 149.158737"></polygon>
                <path d="M301.30068,164.782457 C301.28548,164.497257 301.26668,164.217657 301.25028,163.934457 L136.78068,233.976857 L137.75948,234.429257 L301.30068,164.782457 Z" id="Fill-174" fill="#FFFFFF"></path>
                <path d="M98.14208,177.291417 L75.99968,167.169017 C74.13008,166.314617 71.98648,166.288617 70.09688,167.097817 L46.12368,177.363017 L71.29288,190.461817 L98.14208,177.291417 Z" id="Fill-176" fill="url(#linearGradient-56)"></path>
                <path d="M71.36064,243.224617 L100.34304,230.803417 L100.34304,180.424617 C100.34304,178.086617 97.95224,176.510617 95.80344,177.431417 L71.36064,187.907017 L71.36064,243.224617 Z" id="Fill-178" fill="url(#linearGradient-57)"></path>
                <path d="M86.21724,221.877817 C86.30724,222.079417 86.21684,222.316217 86.01484,222.405817 L71.52364,228.874617 C71.47084,228.898617 71.41524,228.909417 71.36084,228.909417 C71.20804,228.909417 71.06164,228.821017 70.99524,228.672217 C70.90524,228.470617 70.99564,228.234217 71.19764,228.144217 L85.68884,221.675417 C85.89044,221.584617 86.12724,221.676217 86.21724,221.877817 Z M86.21724,213.960617 C86.30724,214.162217 86.21684,214.399017 86.01484,214.488617 L71.52364,220.957417 C71.47084,220.981417 71.41524,220.992217 71.36084,220.992217 C71.20804,220.992217 71.06164,220.903817 70.99524,220.755017 C70.90524,220.553417 70.99564,220.317017 71.19764,220.227017 L85.68884,213.758217 C85.89044,213.667417 86.12724,213.758617 86.21724,213.960617 Z M77.96724,209.292617 C78.05724,209.494217 77.96684,209.731017 77.76484,209.820617 L71.52364,212.606617 C71.47084,212.630617 71.41524,212.641417 71.36084,212.641417 C71.20804,212.641417 71.06164,212.553017 70.99524,212.404217 C70.90524,212.202617 70.99564,211.966217 71.19764,211.876217 L77.43884,209.090217 C77.64044,208.999817 77.87724,209.091017 77.96724,209.292617 Z M90.44244,200.216417 C90.53244,200.418017 90.44204,200.654817 90.24004,200.744417 L71.52364,209.099617 C71.47084,209.123617 71.41524,209.134417 71.36084,209.134417 C71.20804,209.134417 71.06164,209.046017 70.99524,208.897217 C70.90524,208.695617 70.99564,208.459217 71.19764,208.369217 L89.91404,200.014017 C90.11564,199.924017 90.35244,200.014417 90.44244,200.216417 Z" id="Combined-Shape" fill="url(#linearGradient-58)"></path>
                <path d="M71.36064,243.224617 L44.60784,230.803417 L44.60784,179.973417 C44.60784,177.880617 46.77984,176.494617 48.67824,177.375817 L71.36064,187.907017 L71.36064,243.224617 Z" id="Fill-188" fill="#FFFFFF"></path>
                <path d="M47.48512,203.076697 L67.99512,212.793897 C68.19472,212.888297 68.27992,213.126697 68.18512,213.326297 C68.11672,213.470697 67.97312,213.555097 67.82352,213.555097 C67.76592,213.555097 67.70752,213.542697 67.65232,213.516297 L47.14272,203.799097 C46.94312,203.704697 46.85792,203.466297 46.95232,203.266697 C47.04712,203.066697 47.28592,202.981897 47.48512,203.076697 Z M47.48512,200.136057 L67.99512,209.853657 C68.19472,209.948057 68.27992,210.186457 68.18512,210.386057 C68.11672,210.530457 67.97312,210.614857 67.82352,210.614857 C67.76592,210.614857 67.70752,210.602457 67.65232,210.576057 L47.14272,200.858457 C46.94312,200.764057 46.85792,200.525657 46.95232,200.326057 C47.04712,200.126057 47.28592,200.041257 47.48512,200.136057 Z M47.4854,206.016737 L53.1678,208.709537 C53.3674,208.803937 53.4526,209.042337 53.3578,209.241937 C53.2894,209.386337 53.1458,209.470737 52.9962,209.470737 C52.9386,209.470737 52.8802,209.458337 52.825,209.431937 L47.1426,206.739537 C46.943,206.645137 46.8578,206.406737 46.9526,206.207137 C47.047,206.007137 47.2858,205.922737 47.4854,206.016737 Z M47.48512,197.195457 L67.99512,206.913057 C68.19472,207.007457 68.27992,207.245857 68.18512,207.445457 C68.11672,207.589857 67.97312,207.674257 67.82352,207.674257 C67.76592,207.674257 67.70752,207.661857 67.65232,207.635457 L47.14272,197.917857 C46.94312,197.823457 46.85792,197.585057 46.95232,197.385457 C47.04712,197.185457 47.28592,197.101057 47.48512,197.195457 Z M47.48512,194.255217 L67.99512,203.972417 C68.19472,204.066817 68.27992,204.305217 68.18512,204.504817 C68.11672,204.649217 67.97312,204.733617 67.82352,204.733617 C67.76592,204.733617 67.70752,204.721217 67.65232,204.694817 L47.14272,194.977617 C46.94312,194.883217 46.85792,194.644817 46.95232,194.445217 C47.04712,194.245217 47.28592,194.160417 47.48512,194.255217 Z M47.31396,183.507857 L56.34316,187.699857 L56.34316,195.799057 L47.31396,191.606657 L47.31396,183.507857 Z" id="Combined-Shape" fill="url(#linearGradient-59)"></path>
                <path d="M68.41552,216.074617 C68.32672,216.277017 68.41872,216.513017 68.62072,216.601417 L71.36072,217.805017 L71.36072,216.931817 L68.94272,215.869417 C68.74072,215.781417 68.50432,215.872217 68.41552,216.074617" id="Fill-202" fill="url(#linearGradient-60)"></path>
                <path d="M61.18408,190.239497 C60.98208,190.151897 60.74608,190.242697 60.65688,190.445097 C60.56808,190.647497 60.66008,190.883097 60.86208,190.972297 L71.20008,195.513897 C71.25208,195.536297 71.30688,195.547497 71.36048,195.547497 L71.36048,195.547497 L71.36048,194.710297 L61.18408,190.239497 Z" id="Fill-204" fill="url(#linearGradient-61)"></path>
                <path d="M71.36064,228.461737 L62.45264,224.548537 C62.25104,224.460937 62.01424,224.551737 61.92544,224.753737 C61.83664,224.956137 61.92864,225.192137 62.13064,225.281337 L71.36064,229.336537 L71.36064,228.461737 Z" id="Fill-206" fill="url(#linearGradient-62)"></path>
                <path d="M56.18232,214.489857 L71.36072,221.158257 L71.36072,220.283857 L56.50432,213.757057 C56.30272,213.670257 56.06592,213.760257 55.97712,213.962657 C55.88832,214.165057 55.98032,214.400657 56.18232,214.489857" id="Fill-208" fill="url(#linearGradient-63)"></path>
                <path d="M148.21024,214.753137 C149.69304,216.100737 151.67824,216.754337 153.67144,216.550337 L184.47344,213.402337 C185.49064,213.298337 185.90704,212.041537 185.15304,211.350737 L172.93344,200.153537 L145.13464,211.958337 L148.21024,214.753137 Z" id="Fill-106" fill-opacity="0.1" fill="#000000"></path>
            </g>
        </g>
    </g>
</svg>