<?xml version="1.0" encoding="UTF-8"?>
<svg width="4px" height="16px" viewBox="0 0 4 16" version="1.1" xmlns="http://www.w3.org/2000/svg" xmlns:xlink="http://www.w3.org/1999/xlink">
    <title>2BCF19D4-2366-43F5-8BA1-90D63EA9D648@3x</title>
    <g id="Root-cause" stroke="none" stroke-width="1" fill="none" fill-rule="evenodd">
        <g id="06" transform="translate(-1405.000000, -18.000000)" fill="#1B2331">
            <g id="menu+bg" transform="translate(1394.000000, 13.000000)">
                <path d="M13,17 C14.1045695,17 15,17.8954305 15,19 C15,20.1045695 14.1045695,21 13,21 C11.8954305,21 11,20.1045695 11,19 C11,17.8954305 11.8954305,17 13,17 Z M13,11 C14.1045695,11 15,11.8954305 15,13 C15,14.1045695 14.1045695,15 13,15 C11.8954305,15 11,14.1045695 11,13 C11,11.8954305 11.8954305,11 13,11 Z M13,5 C14.1045695,5 15,5.8954305 15,7 C15,8.1045695 14.1045695,9 13,9 C11.8954305,9 11,8.1045695 11,7 C11,5.8954305 11.8954305,5 13,5 Z" id="menu"></path>
            </g>
        </g>
    </g>
</svg>