<!-- Generated by IcoMoon.io -->
<svg version="1.1" xmlns="http://www.w3.org/2000/svg" width="32" height="32" viewBox="0 0 32 32">
<title>archive</title>
<path fill="#444" d="M31.019 4.757l-2.965-3.584c-0.576-0.725-1.451-1.173-2.453-1.173h-19.2c-1.003 0-1.877 0.448-2.475 1.173l-2.944 3.584c-0.619 0.725-0.981 1.685-0.981 2.709v20.267c0 2.347 1.92 4.267 4.267 4.267h23.467c2.347 0 4.267-1.92 4.267-4.267v-20.267c0-1.024-0.363-1.984-0.981-2.709zM16 26.667l-9.6-9.6h5.333v-4.267h8.533v4.267h5.333l-9.6 9.6zM4.267 4.267l1.728-2.133h19.2l2.005 2.133h-22.933z"></path>
</svg>
