<?xml version="1.0" encoding="UTF-8"?>
<svg width="19px" height="19px" viewBox="0 0 19 19" version="1.1" xmlns="http://www.w3.org/2000/svg" xmlns:xlink="http://www.w3.org/1999/xlink">
    <!-- Generator: sketchtool 63.1 (101010) - https://sketch.com -->
    <title>5DC4A180-CD0F-443E-BBF3-955C5F5AED33</title>
    <desc>Created with sketchtool.</desc>
    <g id="dev-first-2" stroke="none" stroke-width="1" fill="none" fill-rule="evenodd">
        <g id="03_empty_state" transform="translate(-26.000000, -72.000000)" fill="#FFFFFF">
            <g id="Group-5" transform="translate(20.000000, 66.000000)">
                <g id="Step">
                    <path d="M15.5,6 C10.275,6 6,10.275 6,15.5 C6,20.725 10.275,25 15.5,25 C20.725,25 25,20.725 25,15.5 C25,10.275 20.725,6 15.5,6 L15.5,6 Z M15.5,7.9 C18.35,7.9 20.725,9.42 22.055,11.7 L15.5,11.7 C13.695,11.7 12.08,13.03 11.795,14.74 L9.515,10.845 C10.94,9.04 13.03,7.9 15.5,7.9 L15.5,7.9 Z M18.35,15.5 C18.35,17.115 17.115,18.35 15.5,18.35 C13.885,18.35 12.65,17.115 12.65,15.5 C12.65,13.885 13.885,12.65 15.5,12.65 C17.115,12.65 18.35,13.885 18.35,15.5 L18.35,15.5 Z M7.9,15.5 C7.9,14.075 8.28,12.84 8.945,11.7 L12.27,17.4 C12.935,18.54 14.17,19.3 15.5,19.3 C15.975,19.3 16.355,19.205 16.735,19.11 L14.455,23.005 C10.75,22.53 7.9,19.3 7.9,15.5 L7.9,15.5 Z M15.5,23.1 L18.825,17.4 C19.11,16.83 19.395,16.165 19.395,15.5 C19.395,14.36 18.92,13.315 18.065,12.65 L22.625,12.65 C23.005,13.505 23.195,14.455 23.195,15.5 C23.1,19.68 19.68,23.1 15.5,23.1 L15.5,23.1 Z" id="Chrome"></path>
                </g>
            </g>
        </g>
    </g>
</svg>