<?xml version="1.0" encoding="UTF-8"?>
<svg width="16px" height="15px" viewBox="0 0 16 15" version="1.1" xmlns="http://www.w3.org/2000/svg" xmlns:xlink="http://www.w3.org/1999/xlink">
    <title>96D81928-D8F3-4609-A9D7-F8189E2B8132@3x</title>
    <g id="dev-first-2" stroke="none" stroke-width="1" fill="none" fill-rule="evenodd">
        <g id="07" transform="translate(-1238.000000, -82.000000)" fill="#1B2331" fill-rule="nonzero">
            <path d="M1253.54,84.23 L1252.15,82.55 C1251.88,82.21 1251.47,82 1251,82 L1241,82 C1240.53,82 1240.12,82.21 1239.84,82.55 L1238.46,84.23 C1238.17,84.57 1238,85.02 1238,85.5 L1238,95 C1238,96.1 1238.9,97 1240,97 L1252,97 C1253.1,97 1254,96.1 1254,95 L1254,85.5 C1254,85.02 1253.83,84.57 1253.54,84.23 Z M1246,94.5 L1241.5,90 L1244,90 L1244,88 L1248,88 L1248,90 L1250.5,90 L1246,94.5 Z M1240.12,84 L1240.93,83 L1250.93,83 L1251.87,84 L1240.12,84 Z" id="har"></path>
        </g>
    </g>
</svg>