<?xml version="1.0" encoding="UTF-8"?>
<svg width="17px" height="14px" viewBox="0 0 17 14" version="1.1" xmlns="http://www.w3.org/2000/svg" xmlns:xlink="http://www.w3.org/1999/xlink">
    <!-- Generator: sketchtool 63.1 (101010) - https://sketch.com -->
    <title>6ADEA937-33AA-4631-9627-2A416E8DF14A</title>
    <desc>Created with sketchtool.</desc>
    <g id="dev-first-2" stroke="none" stroke-width="1" fill="none" fill-rule="evenodd">
        <g id="01" transform="translate(-27.000000, -325.000000)" fill="#FFFFFF">
            <path d="M29,325 C27.9,325 27,325.9 27,327 L27,337 C27,338.1 27.9,339 29,339 L42,339 C43.1,339 44,338.1 44,337 L44,327 C44,325.9 43.1,325 42,325 L29,325 Z M38,328 L38,330 L36,330 L36,328 L38,328 Z M38,331 L38,333 L36,333 L36,331 L38,331 Z M35,328 L35,330 L33,330 L33,328 L35,328 Z M35,331 L35,333 L33,333 L33,331 L35,331 Z M30,333 L30,331 L32,331 L32,333 L30,333 Z M30,330 L30,328 L32,328 L32,330 L30,330 Z M32,337 L32,335 L39,335 L39,337 L32,337 Z M39,333 L39,331 L41,331 L41,333 L39,333 Z M39,330 L39,328 L41,328 L41,330 L39,330 Z" id="keyboard"></path>
        </g>
    </g>
</svg>