<?xml version="1.0" encoding="UTF-8"?>
<svg width="30px" height="30px" viewBox="0 0 30 30" version="1.1" xmlns="http://www.w3.org/2000/svg" xmlns:xlink="http://www.w3.org/1999/xlink">
    <!-- Generator: sketchtool 63.1 (101010) - https://sketch.com -->
    <title>C5AD8F5D-5EBA-4C2A-89CC-B2DE25A5916A@3x</title>
    <desc>Created with sketchtool.</desc>
    <defs>
        <linearGradient x1="0%" y1="0%" x2="99.2153134%" y2="100%" id="linearGradient-1">
            <stop stop-color="#7093FF" offset="0%"></stop>
            <stop stop-color="#3D5AFE" offset="100%"></stop>
        </linearGradient>
    </defs>
    <g id="dev-first-2" stroke="none" stroke-width="1" fill="none" fill-rule="evenodd">
        <g id="01_i" transform="translate(-20.000000, -10.000000)">
            <g id="logo" transform="translate(20.000000, 10.000000)">
                <rect id="Rectangle" fill="url(#linearGradient-1)" x="0" y="0" width="30" height="30" rx="15"></rect>
                <path d="M20.875,11.3981472 L20.875,20 L18.2840622,20 L18.2840622,15.2949642 L18.8450668,14.4522814 L20.875,11.3981472 Z M12.4076738,10.125 L14.0549506,12.7047449 C13.9568422,12.6895401 13.8570481,12.6814309 13.7562426,12.6814309 C12.8368558,12.6814309 12.062103,13.3132741 11.841612,14.1667693 L11.8400949,14.1746674 L11.8385778,14.1833256 L11.8385778,15.1476468 L11.8398842,15.1510256 L11.8409378,15.1544045 L11.8409378,20 L9.25,20 L9.25,10.125 L12.4076738,10.125 Z M20.875,10.125 L20.875,10.1790615 L18.2840622,14.0779058 L18.2840622,14.0731754 L16.1772607,17.2347567 C15.7635872,17.8557877 14.926126,18.0227024 14.3067958,17.6081186 C14.1638475,17.5124974 14.0401163,17.3901834 13.9430193,17.2475963 L13.9430193,17.2475963 L12.6871647,15.4081554 L12.6871647,15.4081554 L12.6679476,15.3804489 C12.5324164,15.1726502 12.4528508,14.9276843 12.4528508,14.6637968 C12.4528508,13.9420764 13.036444,13.357537 13.7562426,13.357537 C14.1928417,13.357537 14.5768467,13.5741206 14.8131833,13.9042334 L14.8131833,13.9042334 L14.8182405,13.9005167 L15.0694114,14.2938137 L17.7176634,10.125 L20.875,10.125 Z" id="Combined-Shape" fill="#FFFFFF"></path>
            </g>
        </g>
    </g>
</svg>